# xmcd CD database file
#
# Track frame offsets:
#	150
#	23397
#	36070
#	52564
#	70400
#	89858
#	118585
#	139307
#	160560
#	177865
#	192889
#
# Disc length: 2847 seconds
#
# Revision: 1
# Processed by: cddbd v1.5PL3 Copyright (c) Steve Scherf et al.
# Submitted via: CDex 1.51
#
DISCID=880b1d0b
DTITLE=栗林みな実他 - SONGS_FROM_age
DYEAR=2003
DGENRE=Soundtrack
TTITLE0=栗林みな実_in_BASXI - 君がいた季節_(BASXI_ver)
TTITLE1=宮内タカユキ - テックメンの歌
TTITLE2=福山芳樹 - ハウンド妄想
TTITLE3=中島満雄 - 闘え!超常戦隊レイスマン
TTITLE4=栗林みな実 - 化石の歌
TTITLE5=MEGUMI - 君が望む永遠_(MEGUMI_ver)
TTITLE6=涼宮遙 - いっしょにいたいね
TTITLE7=栗林みな実 - Rumbling_hearts_(Game_ver)
TTITLE8=栗林みな実 - ウインターラブ
TTITLE9= 白陵大学付属柊学園校歌
TTITLE10=栗林みな実 - Rumbling_hearts_(Acoustic_ver)
EXTD=YEAR: 2003
EXTT0=
EXTT1=
EXTT2=
EXTT3=
EXTT4=
EXTT5=
EXTT6=
EXTT7=
EXTT8=
EXTT9=
EXTT10=
PLAYORDER=
